<svg width="500" height="120" viewBox="0 0 500 120" xmlns="http://www.w3.org/2000/svg">
  <defs>
    <!-- Degradado para la línea divisoria -->
    <linearGradient id="lineGradient" x1="0" y1="0" x2="1" y2="0">
      <stop offset="0%" stop-color="#c242ce"/>
      <stop offset="40%" stop-color="#a259b5"/>
      <stop offset="70%" stop-color="#b3c6ff"/>
      <stop offset="100%" stop-color="#f7b2e6"/>
    </linearGradient>
  </defs>
  <!-- Fondo blanco hueso con borde amarillo pálido -->
  <rect x="0" y="1" width="500" height="118" rx="18" fill="#882d74ff" stroke="#FFF3C4" stroke-width="2"/>
  <!-- Fondo de triángulos -->
 <g opacity="0.45">
 <!-- Fila N1 -->
  <polygon points="0,0 40,0 20.0,20.0" fill="#c9bae5ff"/>
  <polygon points="40,0 40,40 20.0,20.0" fill="#f5cde4ff"/>
  <polygon points="40,40 0,40 20.0,20.0" fill="#fddca2ff"/>
  <polygon points="0,40 0,0 20.0,20.0" fill="#f1e1bfff"/>
  <polygon points="40,0 80,0 60.0,20.0" fill="#c9bae5ff"/>
  <polygon points="80,0 80,40 60.0,20.0" fill="#f5cde4ff"/>
  <polygon points="80,40 40,40 60.0,20.0" fill="#fddca2ff"/>
  <polygon points="40,40 40,0 60.0,20.0" fill="#f1e1bfff"/>
  <polygon points="80,0 120,0 100.0,20.0" fill="#c9bae5ff"/>
  <polygon points="120,0 120,40 100.0,20.0" fill="#f5cde4ff"/>
  <polygon points="120,40 80,40 100.0,20.0" fill="#fddca2ff"/>
  <polygon points="80,40 80,0 100.0,20.0" fill="#f1e1bfff"/>
  <polygon points="120,0 160,0 140.0,20.0" fill="#c9bae5ff"/>
  <polygon points="160,0 160,40 140.0,20.0" fill="#f5cde4ff"/>
  <polygon points="160,40 120,40 140.0,20.0" fill="#fddca2ff"/>
  <polygon points="120,40 120,0 140.0,20.0" fill="#f1e1bfff"/>
  <polygon points="160,0 200,0 180.0,20.0" fill="#c9bae5ff"/>
  <polygon points="200,0 200,40 180.0,20.0" fill="#f5cde4ff"/>
  <polygon points="200,40 160,40 180.0,20.0" fill="#fddca2ff"/>
  <polygon points="160,40 160,0 180.0,20.0" fill="#f1e1bfff"/>
  <polygon points="200,0 240,0 220.0,20.0" fill="#c9bae5ff"/>
  <polygon points="240,0 240,40 220.0,20.0" fill="#f5cde4ff"/>
  <polygon points="240,40 200,40 220.0,20.0" fill="#fddca2ff"/>
  <polygon points="200,40 200,0 220.0,20.0" fill="#f1e1bfff"/>
  <polygon points="240,0 280,0 260.0,20.0" fill="#c9bae5ff"/>
  <polygon points="280,0 280,40 260.0,20.0" fill="#f5cde4ff"/>
  <polygon points="280,40 240,40 260.0,20.0" fill="#fddca2ff"/>
  <polygon points="240,40 240,0 260.0,20.0" fill="#f1e1bfff"/>
  <polygon points="280,0 320,0 300.0,20.0" fill="#c9bae5ff"/>
  <polygon points="320,0 320,40 300.0,20.0" fill="#f5cde4ff"/>
  <polygon points="320,40 280,40 300.0,20.0" fill="#fddca2ff"/>
  <polygon points="280,40 280,0 300.0,20.0" fill="#f1e1bfff"/>
  <polygon points="320,0 360,0 340.0,20.0" fill="#c9bae5ff"/>
  <polygon points="360,0 360,40 340.0,20.0" fill="#f5cde4ff"/>
  <polygon points="360,40 320,40 340.0,20.0" fill="#fddca2ff"/>
  <polygon points="320,40 320,0 340.0,20.0" fill="#f1e1bfff"/>
  <polygon points="360,0 400,0 380.0,20.0" fill="#c9bae5ff"/>
  <polygon points="400,0 400,40 380.0,20.0" fill="#f5cde4ff"/>
  <polygon points="400,40 360,40 380.0,20.0" fill="#fddca2ff"/>
  <polygon points="360,40 360,0 380.0,20.0" fill="#f1e1bfff"/>
  <polygon points="400,0 440,0 420.0,20.0" fill="#c9bae5ff"/>
  <polygon points="440,0 440,40 420.0,20.0" fill="#f5cde4ff"/>
  <polygon points="440,40 400,40 420.0,20.0" fill="#fddca2ff"/>
  <polygon points="400,40 400,0 420.0,20.0" fill="#f1e1bfff"/>
  <polygon points="440,0 480,0 460.0,20.0" fill="#c9bae5ff"/>
  <polygon points="480,0 480,40 460.0,20.0" fill="#f5cde4ff"/>
  <polygon points="480,40 440,40 460.0,20.0" fill="#fddca2ff"/>
  <polygon points="440,40 440,0 460.0,20.0" fill="#f1e1bfff"/>
  <polygon points="480,0 520,0 500.0,20.0" fill="#c9bae5ff"/>
  <polygon points="520,0 520,40 500.0,20.0" fill="#f5cde4ff"/>
  <polygon points="520,40 480,40 500.0,20.0" fill="#fddca2ff"/>
  <polygon points="480,40 480,0 500.0,20.0" fill="#f1e1bfff"/>
  <polygon points="520,0 560,0 540.0,20.0" fill="#c9bae5ff"/>
  <polygon points="560,0 560,40 540.0,20.0" fill="#f5cde4ff"/>
  <polygon points="560,40 520,40 540.0,20.0" fill="#fddca2ff"/>
  <polygon points="520,40 520,0 540.0,20.0" fill="#f1e1bfff"/>
  <polygon points="560,0 600,0 580.0,20.0" fill="#c9bae5ff"/>
  <polygon points="600,0 600,40 580.0,20.0" fill="#f5cde4ff"/>
  <polygon points="600,40 560,40 580.0,20.0" fill="#fddca2ff"/>
  <polygon points="560,40 560,0 580.0,20.0" fill="#f1e1bfff"/>
  <polygon points="600,0 640,0 620.0,20.0" fill="#c9bae5ff"/>
  <polygon points="640,0 640,40 620.0,20.0" fill="#f5cde4ff"/>
  <polygon points="640,40 600,40 620.0,20.0" fill="#fddca2ff"/>
  <polygon points="600,40 600,0 620.0,20.0" fill="#f1e1bfff"/>
  <polygon points="640,0 680,0 660.0,20.0" fill="#c9bae5ff"/>
  <polygon points="680,0 680,40 660.0,20.0" fill="#f5cde4ff"/>
  <polygon points="680,40 640,40 660.0,20.0" fill="#fddca2ff"/>
  <polygon points="640,40 640,0 660.0,20.0" fill="#f1e1bfff"/>
  <polygon points="680,0 720,0 700.0,20.0" fill="#c9bae5ff"/>
  <polygon points="720,0 720,40 700.0,20.0" fill="#f5cde4ff"/>
  <polygon points="720,40 680,40 700.0,20.0" fill="#fddca2ff"/>
  <polygon points="680,40 680,0 700.0,20.0" fill="#f1e1bfff"/>
  <polygon points="720,0 760,0 740.0,20.0" fill="#c9bae5ff"/>
  <polygon points="760,0 760,40 740.0,20.0" fill="#f5cde4ff"/>
  <polygon points="760,40 720,40 740.0,20.0" fill="#fddca2ff"/>
  <polygon points="720,40 720,0 740.0,20.0" fill="#f1e1bfff"/>
  <polygon points="760,0 800,0 780.0,20.0" fill="#c9bae5ff"/>
  <polygon points="800,0 800,40 780.0,20.0" fill="#f5cde4ff"/>
  <polygon points="800,40 760,40 780.0,20.0" fill="#fddca2ff"/>
  <polygon points="760,40 760,0 780.0,20.0" fill="#f1e1bfff"/>
  <polygon points="800,0 840,0 820.0,20.0" fill="#c9bae5ff"/>
  <polygon points="840,0 840,40 820.0,20.0" fill="#f5cde4ff"/>
  <polygon points="840,40 800,40 820.0,20.0" fill="#fddca2ff"/>
  <polygon points="800,40 800,0 820.0,20.0" fill="#f1e1bfff"/>
  <polygon points="840,0 880,0 860.0,20.0" fill="#c9bae5ff"/>
  <polygon points="880,0 880,40 860.0,20.0" fill="#f5cde4ff"/>
  <polygon points="880,40 840,40 860.0,20.0" fill="#fddca2ff"/>
  <polygon points="840,40 840,0 860.0,20.0" fill="#f1e1bfff"/>
  <polygon points="880,0 920,0 900.0,20.0" fill="#c9bae5ff"/>
  <polygon points="920,0 920,40 900.0,20.0" fill="#f5cde4ff"/>
  <polygon points="920,40 880,40 900.0,20.0" fill="#fddca2ff"/>
  <polygon points="880,40 880,0 900.0,20.0" fill="#f1e1bfff"/>
  <polygon points="920,0 960,0 940.0,20.0" fill="#c9bae5ff"/>
  <polygon points="960,0 960,40 940.0,20.0" fill="#f5cde4ff"/>
  <polygon points="960,40 920,40 940.0,20.0" fill="#fddca2ff"/>
  <polygon points="920,40 920,0 940.0,20.0" fill="#f1e1bfff"/>
  <polygon points="960,0 1000,0 980.0,20.0" fill="#c9bae5ff"/>
  <polygon points="1000,0 1000,40 980.0,20.0" fill="#f5cde4ff"/>
  <polygon points="1000,40 960,40 980.0,20.0" fill="#fddca2ff"/>
  <polygon points="960,40 960,0 980.0,20.0" fill="#f1e1bfff"/>
 <!-- Fila N2 -->
  <polygon points="0,40 40,40 20.0,60.0" fill="#c9bae5ff"/>
  <polygon points="40,40 40,80 20.0,60.0" fill="#f5cde4ff"/>
  <polygon points="40,80 0,80 20.0,60.0" fill="#fddca2ff"/>
  <polygon points="0,80 0,40 20.0,60.0" fill="#f1e1bfff"/>
  <polygon points="40,40 80,40 60.0,60.0" fill="#c9bae5ff"/>
  <polygon points="80,40 80,80 60.0,60.0" fill="#f5cde4ff"/>
  <polygon points="80,80 40,80 60.0,60.0" fill="#fddca2ff"/>
  <polygon points="40,80 40,40 60.0,60.0" fill="#f1e1bfff"/>
  <polygon points="80,40 120,40 100.0,60.0" fill="#c9bae5ff"/>
  <polygon points="120,40 120,80 100.0,60.0" fill="#f5cde4ff"/>
  <polygon points="120,80 80,80 100.0,60.0" fill="#fddca2ff"/>
  <polygon points="80,80 80,40 100.0,60.0" fill="#f1e1bfff"/>
  <polygon points="120,40 160,40 140.0,60.0" fill="#c9bae5ff"/>
  <polygon points="160,40 160,80 140.0,60.0" fill="#f5cde4ff"/>
  <polygon points="160,80 120,80 140.0,60.0" fill="#fddca2ff"/>
  <polygon points="120,80 120,40 140.0,60.0" fill="#f1e1bfff"/>
  <polygon points="160,40 200,40 180.0,60.0" fill="#c9bae5ff"/>
  <polygon points="200,40 200,80 180.0,60.0" fill="#f5cde4ff"/>
  <polygon points="200,80 160,80 180.0,60.0" fill="#fddca2ff"/>
  <polygon points="160,80 160,40 180.0,60.0" fill="#f1e1bfff"/>
  <polygon points="200,40 240,40 220.0,60.0" fill="#c9bae5ff"/>
  <polygon points="240,40 240,80 220.0,60.0" fill="#f5cde4ff"/>
  <polygon points="240,80 200,80 220.0,60.0" fill="#fddca2ff"/>
  <polygon points="200,80 200,40 220.0,60.0" fill="#f1e1bfff"/>
  <polygon points="240,40 280,40 260.0,60.0" fill="#c9bae5ff"/>
  <polygon points="280,40 280,80 260.0,60.0" fill="#f5cde4ff"/>
  <polygon points="280,80 240,80 260.0,60.0" fill="#fddca2ff"/>
  <polygon points="240,80 240,40 260.0,60.0" fill="#f1e1bfff"/>
  <polygon points="280,40 320,40 300.0,60.0" fill="#c9bae5ff"/>
  <polygon points="320,40 320,80 300.0,60.0" fill="#f5cde4ff"/>
  <polygon points="320,80 280,80 300.0,60.0" fill="#fddca2ff"/>
  <polygon points="280,80 280,40 300.0,60.0" fill="#f1e1bfff"/>
  <polygon points="320,40 360,40 340.0,60.0" fill="#c9bae5ff"/>
  <polygon points="360,40 360,80 340.0,60.0" fill="#f5cde4ff"/>
  <polygon points="360,80 320,80 340.0,60.0" fill="#fddca2ff"/>
  <polygon points="320,80 320,40 340.0,60.0" fill="#f1e1bfff"/>
  <polygon points="360,40 400,40 380.0,60.0" fill="#c9bae5ff"/>
  <polygon points="400,40 400,80 380.0,60.0" fill="#f5cde4ff"/>
  <polygon points="400,80 360,80 380.0,60.0" fill="#fddca2ff"/>
  <polygon points="360,80 360,40 380.0,60.0" fill="#f1e1bfff"/>
  <polygon points="400,40 440,40 420.0,60.0" fill="#c9bae5ff"/>
  <polygon points="440,40 440,80 420.0,60.0" fill="#f5cde4ff"/>
  <polygon points="440,80 400,80 420.0,60.0" fill="#fddca2ff"/>
  <polygon points="400,80 400,40 420.0,60.0" fill="#f1e1bfff"/>
  <polygon points="440,40 480,40 460.0,60.0" fill="#c9bae5ff"/>
  <polygon points="480,40 480,80 460.0,60.0" fill="#f5cde4ff"/>
  <polygon points="480,80 440,80 460.0,60.0" fill="#fddca2ff"/>
  <polygon points="440,80 440,40 460.0,60.0" fill="#f1e1bfff"/>
  <polygon points="480,40 520,40 500.0,60.0" fill="#c9bae5ff"/>
  <polygon points="520,40 520,80 500.0,60.0" fill="#f5cde4ff"/>
  <polygon points="520,80 480,80 500.0,60.0" fill="#fddca2ff"/>
  <polygon points="480,80 480,40 500.0,60.0" fill="#f1e1bfff"/>
  <polygon points="520,40 560,40 540.0,60.0" fill="#c9bae5ff"/>
  <polygon points="560,40 560,80 540.0,60.0" fill="#f5cde4ff"/>
  <polygon points="560,80 520,80 540.0,60.0" fill="#fddca2ff"/>
  <polygon points="520,80 520,40 540.0,60.0" fill="#f1e1bfff"/>
  <polygon points="560,40 600,40 580.0,60.0" fill="#c9bae5ff"/>
  <polygon points="600,40 600,80 580.0,60.0" fill="#f5cde4ff"/>
  <polygon points="600,80 560,80 580.0,60.0" fill="#fddca2ff"/>
  <polygon points="560,80 560,40 580.0,60.0" fill="#f1e1bfff"/>
  <polygon points="600,40 640,40 620.0,60.0" fill="#c9bae5ff"/>
  <polygon points="640,40 640,80 620.0,60.0" fill="#f5cde4ff"/>
  <polygon points="640,80 600,80 620.0,60.0" fill="#fddca2ff"/>
  <polygon points="600,80 600,40 620.0,60.0" fill="#f1e1bfff"/>
  <polygon points="640,40 680,40 660.0,60.0" fill="#c9bae5ff"/>
  <polygon points="680,40 680,80 660.0,60.0" fill="#f5cde4ff"/>
  <polygon points="680,80 640,80 660.0,60.0" fill="#fddca2ff"/>
  <polygon points="640,80 640,40 660.0,60.0" fill="#f1e1bfff"/>
  <polygon points="680,40 720,40 700.0,60.0" fill="#c9bae5ff"/>
  <polygon points="720,40 720,80 700.0,60.0" fill="#f5cde4ff"/>
  <polygon points="720,80 680,80 700.0,60.0" fill="#fddca2ff"/>
  <polygon points="680,80 680,40 700.0,60.0" fill="#f1e1bfff"/>
  <polygon points="720,40 760,40 740.0,60.0" fill="#c9bae5ff"/>
  <polygon points="760,40 760,80 740.0,60.0" fill="#f5cde4ff"/>
  <polygon points="760,80 720,80 740.0,60.0" fill="#fddca2ff"/>
  <polygon points="720,80 720,40 740.0,60.0" fill="#f1e1bfff"/>
  <polygon points="760,40 800,40 780.0,60.0" fill="#c9bae5ff"/>
  <polygon points="800,40 800,80 780.0,60.0" fill="#f5cde4ff"/>
  <polygon points="800,80 760,80 780.0,60.0" fill="#fddca2ff"/>
  <polygon points="760,80 760,40 780.0,60.0" fill="#f1e1bfff"/>
  <polygon points="800,40 840,40 820.0,60.0" fill="#c9bae5ff"/>
  <polygon points="840,40 840,80 820.0,60.0" fill="#f5cde4ff"/>
  <polygon points="840,80 800,80 820.0,60.0" fill="#fddca2ff"/>
  <polygon points="800,80 800,40 820.0,60.0" fill="#f1e1bfff"/>
  <polygon points="840,40 880,40 860.0,60.0" fill="#c9bae5ff"/>
  <polygon points="880,40 880,80 860.0,60.0" fill="#f5cde4ff"/>
  <polygon points="880,80 840,80 860.0,60.0" fill="#fddca2ff"/>
  <polygon points="840,80 840,40 860.0,60.0" fill="#f1e1bfff"/>
  <polygon points="880,40 920,40 900.0,60.0" fill="#c9bae5ff"/>
  <polygon points="920,40 920,80 900.0,60.0" fill="#f5cde4ff"/>
  <polygon points="920,80 880,80 900.0,60.0" fill="#fddca2ff"/>
  <polygon points="880,80 880,40 900.0,60.0" fill="#f1e1bfff"/>
  <polygon points="920,40 960,40 940.0,60.0" fill="#c9bae5ff"/>
  <polygon points="960,40 960,80 940.0,60.0" fill="#f5cde4ff"/>
  <polygon points="960,80 920,80 940.0,60.0" fill="#fddca2ff"/>
  <polygon points="920,80 920,40 940.0,60.0" fill="#f1e1bfff"/>
  <polygon points="960,40 1000,40 980.0,60.0" fill="#c9bae5ff"/>
  <polygon points="1000,40 1000,80 980.0,60.0" fill="#f5cde4ff"/>
  <polygon points="1000,80 960,80 980.0,60.0" fill="#fddca2ff"/>
  <polygon points="960,80 960,40 980.0,60.0" fill="#f1e1bfff"/>
 <!-- Fila N3 -->
  <polygon points="0,80 40,80 20.0,100.0" fill="#c9bae5ff"/>
  <polygon points="40,80 40,120 20.0,100.0" fill="#f5cde4ff"/>
  <polygon points="40,120 0,120 20.0,100.0" fill="#fddca2ff"/>
  <polygon points="0,120 0,80 20.0,100.0" fill="#f1e1bfff"/>
  <polygon points="40,80 80,80 60.0,100.0" fill="#c9bae5ff"/>
  <polygon points="80,80 80,120 60.0,100.0" fill="#f5cde4ff"/>
  <polygon points="80,120 40,120 60.0,100.0" fill="#fddca2ff"/>
  <polygon points="40,120 40,80 60.0,100.0" fill="#f1e1bfff"/>
  <polygon points="80,80 120,80 100.0,100.0" fill="#c9bae5ff"/>
  <polygon points="120,80 120,120 100.0,100.0" fill="#f5cde4ff"/>
  <polygon points="120,120 80,120 100.0,100.0" fill="#fddca2ff"/>
  <polygon points="80,120 80,80 100.0,100.0" fill="#f1e1bfff"/>
  <polygon points="120,80 160,80 140.0,100.0" fill="#c9bae5ff"/>
  <polygon points="160,80 160,120 140.0,100.0" fill="#f5cde4ff"/>
  <polygon points="160,120 120,120 140.0,100.0" fill="#fddca2ff"/>
  <polygon points="120,120 120,80 140.0,100.0" fill="#f1e1bfff"/>
  <polygon points="160,80 200,80 180.0,100.0" fill="#c9bae5ff"/>
  <polygon points="200,80 200,120 180.0,100.0" fill="#f5cde4ff"/>
  <polygon points="200,120 160,120 180.0,100.0" fill="#fddca2ff"/>
  <polygon points="160,120 160,80 180.0,100.0" fill="#f1e1bfff"/>
  <polygon points="200,80 240,80 220.0,100.0" fill="#c9bae5ff"/>
  <polygon points="240,80 240,120 220.0,100.0" fill="#f5cde4ff"/>
  <polygon points="240,120 200,120 220.0,100.0" fill="#fddca2ff"/>
  <polygon points="200,120 200,80 220.0,100.0" fill="#f1e1bfff"/>
  <polygon points="240,80 280,80 260.0,100.0" fill="#c9bae5ff"/>
  <polygon points="280,80 280,120 260.0,100.0" fill="#f5cde4ff"/>
  <polygon points="280,120 240,120 260.0,100.0" fill="#fddca2ff"/>
  <polygon points="240,120 240,80 260.0,100.0" fill="#f1e1bfff"/>
  <polygon points="280,80 320,80 300.0,100.0" fill="#c9bae5ff"/>
  <polygon points="320,80 320,120 300.0,100.0" fill="#f5cde4ff"/>
  <polygon points="320,120 280,120 300.0,100.0" fill="#fddca2ff"/>
  <polygon points="280,120 280,80 300.0,100.0" fill="#f1e1bfff"/>
  <polygon points="320,80 360,80 340.0,100.0" fill="#c9bae5ff"/>
  <polygon points="360,80 360,120 340.0,100.0" fill="#f5cde4ff"/>
  <polygon points="360,120 320,120 340.0,100.0" fill="#fddca2ff"/>
  <polygon points="320,120 320,80 340.0,100.0" fill="#f1e1bfff"/>
  <polygon points="360,80 400,80 380.0,100.0" fill="#c9bae5ff"/>
  <polygon points="400,80 400,120 380.0,100.0" fill="#f5cde4ff"/>
  <polygon points="400,120 360,120 380.0,100.0" fill="#fddca2ff"/>
  <polygon points="360,120 360,80 380.0,100.0" fill="#f1e1bfff"/>
  <polygon points="400,80 440,80 420.0,100.0" fill="#c9bae5ff"/>
  <polygon points="440,80 440,120 420.0,100.0" fill="#f5cde4ff"/>
  <polygon points="440,120 400,120 420.0,100.0" fill="#fddca2ff"/>
  <polygon points="400,120 400,80 420.0,100.0" fill="#f1e1bfff"/>
  <polygon points="440,80 480,80 460.0,100.0" fill="#c9bae5ff"/>
  <polygon points="480,80 480,120 460.0,100.0" fill="#f5cde4ff"/>
  <polygon points="480,120 440,120 460.0,100.0" fill="#fddca2ff"/>
  <polygon points="440,120 440,80 460.0,100.0" fill="#f1e1bfff"/>
  <polygon points="480,80 520,80 500.0,100.0" fill="#c9bae5ff"/>
  <polygon points="520,80 520,120 500.0,100.0" fill="#f5cde4ff"/>
  <polygon points="520,120 480,120 500.0,100.0" fill="#fddca2ff"/>
  <polygon points="480,120 480,80 500.0,100.0" fill="#f1e1bfff"/>
  <polygon points="520,80 560,80 540.0,100.0" fill="#c9bae5ff"/>
  <polygon points="560,80 560,120 540.0,100.0" fill="#f5cde4ff"/>
  <polygon points="560,120 520,120 540.0,100.0" fill="#fddca2ff"/>
  <polygon points="520,120 520,80 540.0,100.0" fill="#f1e1bfff"/>
  <polygon points="560,80 600,80 580.0,100.0" fill="#c9bae5ff"/>
  <polygon points="600,80 600,120 580.0,100.0" fill="#f5cde4ff"/>
  <polygon points="600,120 560,120 580.0,100.0" fill="#fddca2ff"/>
  <polygon points="560,120 560,80 580.0,100.0" fill="#f1e1bfff"/>
  <polygon points="600,80 640,80 620.0,100.0" fill="#c9bae5ff"/>
  <polygon points="640,80 640,120 620.0,100.0" fill="#f5cde4ff"/>
  <polygon points="640,120 600,120 620.0,100.0" fill="#fddca2ff"/>
  <polygon points="600,120 600,80 620.0,100.0" fill="#f1e1bfff"/>
  <polygon points="640,80 680,80 660.0,100.0" fill="#c9bae5ff"/>
  <polygon points="680,80 680,120 660.0,100.0" fill="#f5cde4ff"/>
  <polygon points="680,120 640,120 660.0,100.0" fill="#fddca2ff"/>
  <polygon points="640,120 640,80 660.0,100.0" fill="#f1e1bfff"/>
  <polygon points="680,80 720,80 700.0,100.0" fill="#c9bae5ff"/>
  <polygon points="720,80 720,120 700.0,100.0" fill="#f5cde4ff"/>
  <polygon points="720,120 680,120 700.0,100.0" fill="#fddca2ff"/>
  <polygon points="680,120 680,80 700.0,100.0" fill="#f1e1bfff"/>
  <polygon points="720,80 760,80 740.0,100.0" fill="#c9bae5ff"/>
  <polygon points="760,80 760,120 740.0,100.0" fill="#f5cde4ff"/>
  <polygon points="760,120 720,120 740.0,100.0" fill="#fddca2ff"/>
  <polygon points="720,120 720,80 740.0,100.0" fill="#f1e1bfff"/>
  <polygon points="760,80 800,80 780.0,100.0" fill="#c9bae5ff"/>
  <polygon points="800,80 800,120 780.0,100.0" fill="#f5cde4ff"/>
  <polygon points="800,120 760,120 780.0,100.0" fill="#fddca2ff"/>
  <polygon points="760,120 760,80 780.0,100.0" fill="#f1e1bfff"/>
  <polygon points="800,80 840,80 820.0,100.0" fill="#c9bae5ff"/>
  <polygon points="840,80 840,120 820.0,100.0" fill="#f5cde4ff"/>
  <polygon points="840,120 800,120 820.0,100.0" fill="#fddca2ff"/>
  <polygon points="800,120 800,80 820.0,100.0" fill="#f1e1bfff"/>
  <polygon points="840,80 880,80 860.0,100.0" fill="#c9bae5ff"/>
  <polygon points="880,80 880,120 860.0,100.0" fill="#f5cde4ff"/>
  <polygon points="880,120 840,120 860.0,100.0" fill="#fddca2ff"/>
  <polygon points="840,120 840,80 860.0,100.0" fill="#f1e1bfff"/>
  <polygon points="880,80 920,80 900.0,100.0" fill="#c9bae5ff"/>
  <polygon points="920,80 920,120 900.0,100.0" fill="#f5cde4ff"/>
  <polygon points="920,120 880,120 900.0,100.0" fill="#fddca2ff"/>
  <polygon points="880,120 880,80 900.0,100.0" fill="#f1e1bfff"/>
  <polygon points="920,80 960,80 940.0,100.0" fill="#c9bae5ff"/>
  <polygon points="960,80 960,120 940.0,100.0" fill="#f5cde4ff"/>
  <polygon points="960,120 920,120 940.0,100.0" fill="#fddca2ff"/>
  <polygon points="920,120 920,80 940.0,100.0" fill="#f1e1bfff"/>
  <polygon points="960,80 1000,80 980.0,100.0" fill="#c9bae5ff"/>
  <polygon points="1000,80 1000,120 980.0,100.0" fill="#f5cde4ff"/>
  <polygon points="1000,120 960,120 980.0,100.0" fill="#fddca2ff"/>
  <polygon points="960,120 960,80 980.0,100.0" fill="#f1e1bfff"/>

 </g>
  <!-- Título principal -->
  <text x="50%" y="58" text-anchor="middle" font-size="42" font-family="'Montserrat', Arial, Helvetica, sans-serif" font-weight="bold" fill="#E6C200" letter-spacing="1">
    Inti Panesso
  </text>
  <!-- Línea divisoria degradada -->
  <rect x="80" y="72" width="340" height="3" rx="1.5" fill="url(#lineGradient)" />
  <!-- Subtítulo -->
  <text x="50%" y="100" text-anchor="middle" font-size="18" font-family="'Montserrat', Arial, Helvetica, sans-serif" font-weight="bold" fill="#f3ac41ff" letter-spacing="1">
    <tspan fill="#fddca2ff">Musician</tspan>
    <tspan fill="#b3c6ff" dx="10">Composer</tspan>
    <tspan fill="#f7b2e6ff" dx="10">Programmer</tspan>
  </text>
</svg>
